<?xml version="1.0" encoding="UTF-8"?>
<!DOCTYPE svg>
<svg width="999" height="345" viewBox="-3,-3 666,230" xmlns="http://www.w3.org/2000/svg" xmlns:xlink="http://www.w3.org/1999/xlink">
   <rect x="5" y="5" width="650" height="214" rx="25" ry="25" fill="white" stroke="black" stroke-width="5"/>
   <g id="illu">
      <rect x="21" y="21" width="265" height="182" rx="15" ry="15" fill="#ed1c24"/>
      <g fill="white">
         <circle cx="274" cy="84" r="17"/>
         <path d="M 210,132 l 2,3 M 207,134 l 2,3 M 223,122 l 2,3 M 227,119 l 2,3 M 49.5,163 l 2,2 M 47,167 l 2,2 M 39,180 l 2,1 M 38,185 l 2,0" stroke-linecap="round" stroke="white" stroke-width="2" fill="none"/>
         <path d="M 70,49 C 60,51 61,53 50,71 C 47,75 48,72 45,76 C 43,79 41,80 38,82 C 36,83 37,86 44,82 Q 43,84 41,86 C 37,90 46,92 50,87 C 52,85 54,84 54,80 C 54,78 64,71 72,61 z"/>
         <path d="M 114,64 C 115,71 117,72 124,68 C 126,67 127,68 128,67 C 129,66 131,62 132,61 C 133,59 138,60 138,55 C 138,32 113,35 109,51 V 66 H 115 z"/>
         <path d="M 110,50 C 97,41 97,41 65,48 L 69,64 C 76,64 82,62 87,61 Q 82,64 78,65 C 69,99 73,108 76,106 H 113 V 91 Q 115,80 115,66 z"/>
         <path d="M 85,139 C 86,146 88,154 91,159 C 84,157 69,162 56,169 L 48,180 C 114,175 115,186 111,129 z"/>
         <path d="M 114,120 C 120,122 141,124 156,124 C 160,130 186,130 205,130 L 212,123 C 164,104 156,100 154,102 C 146,97 133,95 123,93 z"/>
         <path d="M 76,106 C 71,107 81,148 86,144 L 112,135 L 112,122 L 116,122 L 126,94 C 127,92 124,91 111,90 z"/>
         <path d="M 198,127 C 200,135 205,140 212,135 L 228,122 C 232,119 232,116 224,118 C 219,119 210,120 200,120 z"/>
         <path d="M 62,167 C 57,160 51,159 47,168 C 37,180 39,182 38,188 C 38,191 41,191 43,190 C 46,188 50,182 58,178 z "/>
      </g>   
   </g>
   <g id="text" transform="translate(270,-257) scale(1.2817)">
      <path fill="black" fill-rule="evenodd"
       d="M 22,262 h 24 c 8,0 14,-4 14,-10 v -5 a 7,7 0 0,0 -7,-7 h -3 a 10,11 0 0,0 10,-11 v -1 a 12,11 0 0,0 -12,-11 h -26 z m 12,-10 h 11 a 3,3 0 0,0 3,-3 v -2.5 a 3,3 0 0,0 -3,-3 h -11 z m 0,-17.5 h 11 a 3,3 0 0,0 3,-3 v -2.5 a 3,3 0 0,0 -3,-3 h -11 z
          M 78,217 h -12 v 30 c 0,8 0,16 19.5,16 s 19.5,-8 19.5,-16 v -30 h -12 v 29 c 0,4 0,6 -6,6 h -3 c -6,0 -6,-2 -6,-6 z 
          M 112,262 h 12 v -34 l 13,34 h 20 v -45 h -12 v 34 l -13,-34 h -20 z  
          M 163,262 h 24 c 16,0 17,-11 17,-19 v -10 c 0,-16 -12,-16 -18,-16 h -23 z m 12,-11 h 10 c 7,0 7,-5 7,-8 v -8 c 0,-7 -3,-7 -5,-7 h -12 z
          M 210,262 h 33 v -10 h -21 v -8 h 19 v -9 h -19 v -8 h 21 v -10 h -33 z
          M 249,247 c 0,7 0,16 20,16 c 19,0 19,-11 19,-15 s 0,-13 -15,-13 c -3,0 -12,0 -12,-4 c 0,-4 2,-4 7,-4 c 5,0 7,0 7,4 h 11 c 0,-14 -4,-14 -19,-14 c -16,0 -18,4 -18,14 c 0,3 0,13 16,13 c 3,0 11,0 11,4 c 0,4 -2,4 -7,4 c -7,0 -8,0 -8,-5 z
          M 22,359 h 56 v -21 h -33 v -67 h -23 z
          M 88,359 h 24 v -88 h -24 z
          M 164,360 C 202,360 202,350 202,315 S 202,271 164,271 S 122,284 122,315 S 122,360 164,360 z 
          M 163,341 C 179,341 179,338 179,315 S 179,291 163,291 S 147,292 147,315 S 147,341 163,341 
          M 204,359 h 24 l 20,-70 l 20,70 h 24 l -26,-88 h -36 z"/>
      <path fill="black" d="M 163,326 h 25 v -18 h -25 z M 220,344 h 50 v -17 h -50 z"/>
      <path fill="white" d="M 162,310 h 50 v -11 h -50 z"/>
   </g>   
</svg>
